<?xml version="1.0" standalone="no"?>
<!DOCTYPE svg PUBLIC "-//W3C//DTD SVG 20010904//EN"
 "http://www.w3.org/TR/2001/REC-SVG-20010904/DTD/svg10.dtd">
<svg version="1.0" xmlns="http://www.w3.org/2000/svg"
 width="700.000000pt" height="700.000000pt" viewBox="0 0 700.000000 700.000000"
 preserveAspectRatio="xMidYMid meet">
<metadata>
Created by potrace 1.14, written by Peter Selinger 2001-2017
</metadata>
<g transform="translate(0.000000,700.000000) scale(0.100000,-0.100000)"
fill="#000000" stroke="none">
<path d="M3964 6736 l-21 -15 22 -78 c21 -73 72 -287 81 -343 2 -14 7 -35 9
-48 5 -19 26 -141 50 -283 5 -26 9 -55 20 -144 3 -27 10 -75 15 -105 5 -30 12
-80 15 -110 3 -30 7 -68 9 -85 5 -33 15 -124 22 -195 2 -25 6 -66 9 -92 8 -80
14 -140 20 -218 3 -41 8 -95 10 -120 3 -25 7 -83 10 -130 3 -47 8 -107 10
-135 2 -27 7 -97 10 -155 3 -58 8 -134 10 -170 4 -58 9 -180 20 -465 29 -722
19 -1862 -20 -2355 -2 -25 -6 -92 -10 -150 -10 -152 -21 -284 -30 -360 -3 -19
-7 -69 -10 -110 -3 -41 -8 -82 -10 -90 -2 -8 -7 -42 -11 -75 -3 -33 -14 -108
-24 -167 -9 -60 -15 -108 -13 -108 2 0 31 9 65 21 50 16 86 20 187 20 117 0
146 -4 250 -37 20 -6 22 -4 18 12 -6 20 -22 133 -34 249 -10 90 -10 711 0 830
4 50 10 117 12 150 3 33 7 76 10 95 2 19 7 60 10 90 4 30 8 66 10 80 2 14 6
48 9 75 6 51 15 115 22 150 2 10 6 37 9 60 9 61 34 202 50 275 7 36 16 83 20
105 3 22 10 58 16 80 6 22 13 49 15 60 2 11 21 92 43 180 152 615 386 1193
634 1569 235 356 484 568 766 652 51 16 86 31 79 35 -7 3 -51 16 -98 29 -290
76 -625 228 -985 448 -87 53 -313 204 -365 244 -181 139 -248 191 -265 206
-11 10 -47 40 -80 67 -131 109 -360 332 -465 455 -114 132 -103 122 -126 106z"/>
<path d="M2220 3510 c-113 -24 -169 -43 -268 -93 -225 -113 -462 -359 -588
-608 -79 -159 -162 -409 -198 -599 -2 -14 -11 -60 -20 -102 -8 -43 -18 -104
-21 -135 -4 -32 -8 -65 -10 -73 -8 -29 -18 -197 -18 -300 0 -167 14 -299 47
-435 33 -137 109 -276 202 -369 53 -54 178 -151 225 -177 187 -101 264 -130
424 -164 96 -20 133 -22 295 -20 102 2 192 4 200 5 13 2 142 28 229 46 49 10
261 84 339 119 317 139 606 337 840 574 l92 94 -44 47 c-24 25 -49 56 -55 68
-15 29 -25 28 -40 -5 -61 -135 -264 -337 -446 -445 -192 -114 -411 -191 -633
-223 -91 -12 -298 -13 -367 -1 -132 23 -256 78 -309 136 -94 104 -147 297
-149 545 -1 117 9 300 17 314 2 3 7 26 10 51 9 71 62 278 91 360 119 330 308
602 483 693 118 61 223 83 392 80 262 -4 618 -120 837 -274 58 -40 73 -46 73
-29 0 13 65 102 104 144 l27 28 -28 31 c-108 117 -270 251 -438 363 -108 71
-333 192 -450 241 -96 40 -263 90 -360 107 -16 3 -41 9 -55 12 -14 3 -97 7
-185 9 -123 2 -180 -2 -245 -15z"/>
</g>
</svg>
